<?xml version="1.0" encoding="iso-8859-1"?>
<!-- Generator: Adobe Illustrator 19.0.0, SVG Export Plug-In . SVG Version: 6.00 Build 0)  -->
<svg version="1.1" id="Capa_1" xmlns="http://www.w3.org/2000/svg" xmlns:xlink="http://www.w3.org/1999/xlink" x="0px" y="0px"
	 viewBox="0 0 505.648 505.648" style="enable-background:new 0 0 505.648 505.648;" xml:space="preserve">
<g>
	<g transform="translate(0 1)">
		<path style="fill:#2E7D32;" d="M452.91,273.395c-0.619-11.312-2.078-22.562-4.365-33.658c-0.42-2.182-0.923-4.365-1.427-6.631
			c-8.273-35.633-21.495-69.931-39.281-101.896c15.024-26.691,19.221-61.272,20.228-86.536c-0.299-4.524-3.168-8.475-7.377-10.158
			c-4.209-1.684-9.012-0.802-12.348,2.268c-11.764,14.429-27.4,25.203-45.073,31.056C331.289,32.503,293.015,8.414,251.803,8.414
			c-14.669,0.063-29.183,3-42.723,8.645l-18.382,8.897l-0.084,0.084c-18.813,11.223-35.75,25.328-50.193,41.799
			c-6.728-1.733-13.134-4.538-18.969-8.31c-9.782-6.31-18.626-13.968-26.271-22.746c-3.336-3.07-8.138-3.952-12.348-2.268
			c-4.209,1.684-7.078,5.634-7.377,10.158c0.168,5.204,0.504,10.744,1.091,16.535c1.572,24.416,8.083,48.259,19.137,70.085h0.084
			c-17.613,31.544-30.749,65.387-39.03,100.553l-1.511,6.799c-2.529,12.166-4.073,24.517-4.616,36.931v0.084
			C26.607,301.513,0,334.583,0,354.392c0,31.475,14.437,47.423,42.89,47.423c4.806-0.049,9.603-0.442,14.353-1.175
			c2.686-0.671,5.456-1.259,8.226-1.847c0.084,0.084,0.252,0.168,0.336,0.252c3.861-0.839,7.889-1.847,12.087-3.022
			c7.554-2.182,15.36-3.945,23.166-5.624c19.807,15.708,42.508,27.372,66.812,34.329v16.451c11.116,1.775,22.326,2.896,33.574,3.357
			v-12.003c16.655,2.655,33.495,3.974,50.361,3.945c16.869,0.044,33.713-1.303,50.361-4.029v41.715
			c-10.492,5.708-16.787,13.094-16.787,21.068h151.082c0-18.549-33.826-33.574-75.541-33.574c-8.431-0.019-16.851,0.627-25.18,1.931
			v-38.862c17.491-5.1,34.207-12.555,49.689-22.159c6.146-3.734,12.009-7.914,17.542-12.506h0.084
			c8.309,1.763,16.619,3.609,24.761,5.959c9.148,2.73,18.535,4.584,28.034,5.54c2.35,0.168,4.7,0.252,6.883,0.252
			c28.454,0,42.891-15.948,42.891-47.423C505.621,333.996,477.419,299.499,452.91,273.395z"/>
		<path style="fill:#4CAF50;" d="M470.033,362.785c0,18.046-4.784,31.056-14.185,38.778c-9.499-0.955-18.886-2.81-28.034-5.54
			c-8.142-2.35-16.451-4.197-24.761-5.959h-0.084c-5.534,4.592-11.397,8.772-17.542,12.506c-5.959-1.511-12.003-2.854-18.046-4.113
			c-19.304,15.491-41.462,27.041-65.217,33.993c-16.648,2.725-33.492,4.073-50.361,4.029c-16.865,0.03-33.706-1.29-50.361-3.945
			v12.003c-11.247-0.462-22.458-1.583-33.574-3.357v-16.451c-24.304-6.957-47.004-18.621-66.812-34.329
			c-7.806,1.679-15.612,3.441-23.165,5.624c-4.197,1.175-8.226,2.182-12.087,3.022c-0.084-0.084-0.252-0.168-0.336-0.252
			c-2.77,0.587-5.54,1.175-8.226,1.847c-4.75,0.733-9.547,1.126-14.353,1.175C14.437,401.815,0,385.867,0,354.392
			c0-19.809,26.607-52.879,50.612-78.73v-0.084c0.544-12.414,2.087-24.765,4.616-36.931l1.511-6.799
			c8.28-35.167,21.416-69.009,39.03-100.553h-0.084C84.631,109.467,78.12,85.625,76.548,61.209
			c-0.588-5.791-0.923-11.331-1.091-16.535c0.299-4.524,3.168-8.475,7.377-10.158c4.209-1.684,9.012-0.802,12.348,2.268
			c7.645,8.779,16.489,16.436,26.271,22.746c5.836,3.771,12.241,6.577,18.969,8.31c14.443-16.471,31.38-30.576,50.193-41.799
			l0.084-0.084l18.382-8.897c2.35-0.168,4.784-0.252,7.134-0.252c2.266,0,4.616,0.084,6.967,0.252
			c35.085,2.266,66.392,21.823,91.237,45.576c4.532,4.281,8.981,8.813,13.262,13.513c41.492,47.134,70.342,104.027,83.85,165.351
			c0.504,2.266,1.007,4.449,1.427,6.631c2.287,11.096,3.746,22.346,4.365,33.658C441.831,307.892,470.033,342.389,470.033,362.785z"
			/>
		<path style="fill:#558B30;" d="M65.469,398.793c0.084,0.084,0.252,0.168,0.336,0.252c-2.938,0.671-5.875,1.175-8.561,1.595
			C59.929,399.968,62.699,399.381,65.469,398.793z"/>
		<path style="fill:#2E7D32;" d="M218.229,495.234H67.148c0-9.652,9.149-18.298,23.753-24.425
			c13.215-5.191,27.196-8.169,41.38-8.813c3.357-0.252,6.883-0.336,10.408-0.336c7.753-0.011,15.496,0.55,23.166,1.679l2.014,0.252
			v-22.41c11.116,1.775,22.326,2.896,33.574,3.357v29.629C211.934,479.874,218.229,487.26,218.229,495.234z"/>
		<path style="fill:#558B30;" d="M190.699,25.956c5.897-3.419,12.042-6.393,18.382-8.897L190.699,25.956z"/>
		<g>
			<path style="fill:#CFD8DC;" d="M140.422,67.84c-17.258,19.377-32.24,40.668-44.653,63.454h-0.084
				c-15.024-26.691-19.221-61.356-20.228-86.62c0.299-4.524,3.168-8.475,7.377-10.158c4.209-1.684,9.012-0.802,12.348,2.268
				C106.97,51.262,122.675,62.043,140.422,67.84z"/>
			<path style="fill:#CFD8DC;" d="M428.066,44.674c-1.007,25.264-5.204,59.845-20.228,86.536
				c-12.435-22.727-27.385-43.984-44.569-63.37c17.673-5.853,33.309-16.627,45.073-31.056c3.336-3.07,8.138-3.952,12.348-2.268
				C424.898,36.199,427.767,40.15,428.066,44.674z"/>
		</g>
		<path style="fill:#FFFFFF;" d="M310.641,189.964c10.844-13.358,16.744-30.05,16.703-47.255c0-41.72-33.821-75.541-75.541-75.541
			s-75.541,33.821-75.541,75.541c-0.041,17.205,5.859,33.897,16.703,47.255"/>
		<circle style="fill:#E91E63;" cx="251.803" cy="125.922" r="25.18"/>
		<path style="fill:#3D324C;" d="M340.828,206.594c-0.986-0.002-1.964-0.176-2.889-0.516c-5.82-2.107-11.749-3.899-17.762-5.369
			c-6.488-1.611-13.439-2.992-20.652-4.111c-7.373-1.143-15.102-2.025-22.975-2.615c-16.475-1.213-33.017-1.213-49.492,0
			c-7.873,0.59-15.602,1.471-22.975,2.615c-7.213,1.119-14.164,2.5-20.652,4.111c-6.013,1.469-11.942,3.262-17.762,5.369
			c-2.816,1.032-5.968,0.484-8.27-1.438c-2.302-1.922-3.403-4.927-2.889-7.881c0.514-2.955,2.565-5.411,5.381-6.443
			c6.39-2.315,12.899-4.285,19.5-5.902c6.971-1.725,14.414-3.209,22.119-4.406c7.807-1.209,15.984-2.139,24.295-2.762
			c17.31-1.279,34.69-1.279,52,0c8.311,0.623,16.488,1.553,24.295,2.762c7.705,1.197,15.148,2.68,22.119,4.406
			c6.601,1.616,13.11,3.587,19.5,5.902c3.821,1.402,6.086,5.342,5.375,9.35C348.381,203.673,344.898,206.593,340.828,206.594z"/>
		<g>
			<path style="fill:#F5EFCA;" d="M175.507,249.977l-21.319,21.319c-2.23,2.217-5.513,3-8.503,2.027
				c-2.99-0.973-5.184-3.538-5.682-6.643l-5.708-34.245C147.431,239.606,161.233,245.481,175.507,249.977z"/>
			<path style="fill:#F5EFCA;" d="M360.163,236.967l-4.952,29.713c-0.497,3.105-2.691,5.67-5.681,6.643
				c-2.99,0.973-6.274,0.191-8.503-2.027l-19.557-19.557C334.905,248.361,347.893,243.403,360.163,236.967z"/>
			<path style="fill:#F5EFCA;" d="M317.776,252.579l-10.66,29.461c-1.449,3.041-4.365,5.119-7.712,5.495
				c-3.348,0.376-6.652-1.004-8.739-3.648l-22.075-26.271v-0.252C285.097,257.28,301.562,255.679,317.776,252.579z"/>
		</g>
		<g>
			<path style="fill:#00695C;" d="M201.443,432.535v41.632c-10.509-5.407-21.863-8.983-33.574-10.576v-38.862
				C178.876,428.067,190.092,430.675,201.443,432.535z"/>
			<path style="fill:#00695C;" d="M335.738,424.729v38.862c-11.711,1.593-23.064,5.169-33.574,10.576v-41.715
				C313.521,430.659,324.739,428.078,335.738,424.729z"/>
		</g>
		<g>
			<path style="fill:#CC66A1;" d="M42.889,401.816C14.43,401.816,0,385.861,0,354.393c0-20.971,29.779-56.799,54.758-83.164
				c2.063-2.177,5.131-3.088,8.048-2.39s5.24,2.899,6.094,5.775c0.854,2.875,0.109,5.988-1.954,8.165
				c-30.471,32.151-50.16,60.266-50.16,71.615c0,22.332,7.074,30.635,26.102,30.635c10.302-0.344,20.511-2.071,30.352-5.135
				c11.524-3.341,23.373-5.791,34.828-8.16l1.025-0.213c2.156-0.443,4.795-0.811,7.656-1.201c5.75-0.787,16.451-2.246,18.93-5.287
				c0.567-1.011,0.793-2.178,0.643-3.328c-0.389-3.798-2.015-7.363-4.627-10.148c-10.693-12.074-31.184-13.799-47.84-13.951
				c-4.636-0.022-8.376-3.797-8.354-8.432c0.022-4.636,3.797-8.376,8.432-8.354h0.078c20.131,0.185,45.172,2.582,60.258,19.615
				c5.113,5.614,8.213,12.77,8.811,20.34c0.412,5.301-1.133,10.569-4.344,14.807c-6.713,8.229-19.467,9.971-29.717,11.369
				c-2.442,0.332-4.693,0.631-6.529,1.012l-1.02,0.209c-11.143,2.303-22.664,4.684-33.591,7.856
				C66.532,399.529,54.761,401.475,42.889,401.816z"/>
			<path style="fill:#CC66A1;" d="M462.754,401.816c-11.856-0.339-23.612-2.281-34.947-5.775
				c-10.963-3.18-22.471-5.562-33.602-7.861l-1.053-0.217c-1.832-0.381-4.082-0.68-6.525-1.012
				c-10.25-1.397-23.004-3.139-29.668-11.303c-3.235-4.231-4.8-9.505-4.398-14.816c0.589-7.583,3.685-14.755,8.799-20.385
				c15.103-17.045,40.143-19.443,60.275-19.627h0.078c4.636-0.022,8.411,3.719,8.432,8.354c0.022,4.636-3.719,8.411-8.354,8.432
				c-16.656,0.152-37.148,1.877-47.852,13.959c-2.619,2.803-4.242,6.391-4.619,10.209c-0.143,1.156,0.102,2.326,0.697,3.328
				c2.426,2.971,13.131,4.43,18.881,5.217c2.861,0.389,5.5,0.758,7.652,1.201l1.058,0.221c11.447,2.365,23.283,4.811,34.84,8.164
				c9.827,3.058,20.021,4.781,30.307,5.123c19.033,0,26.107-8.303,26.107-30.635c0-11.34-19.688-39.451-50.16-71.619
				c-3.187-3.366-3.042-8.678,0.324-11.865c3.366-3.187,8.678-3.042,11.865,0.324c24.979,26.369,54.758,62.201,54.758,83.16
				C505.647,385.861,491.217,401.816,462.754,401.816z"/>
		</g>
	</g>
	<g>
		<path d="M461.639,283.881c-0.138-15.031-1.762-30.011-4.848-44.721c-0.361-1.873-0.779-3.742-1.209-5.664l-0.271-1.209
			c-8.196-34.864-21.021-68.474-38.133-99.936c12.55-27.076,19.125-56.537,19.276-86.38c-0.177-8.062-5.148-15.24-12.632-18.243
			c-7.484-3.002-16.038-1.249-21.737,4.456c-9.83,11.733-22.281,20.992-36.347,27.029C333.613,24.785,294.854,1.021,251.803,1.021
			c-42.91,0-81.643,23.807-113.788,58.248c-14.177-6.014-26.724-15.308-36.609-27.117c-5.607-5.948-14.362-7.702-21.827-4.373
			c-7.617,2.802-12.631,10.111-12.504,18.225c0.14,29.908,6.734,59.434,19.332,86.56c-16.902,31.016-29.633,64.128-37.865,98.477
			l-1.537,6.934c-3.198,15.097-4.885,30.475-5.037,45.906c0,0.76,0.062,1.47,0.073,2.21C20.688,310.13,0,337.915,0,355.393
			c0,31.467,14.43,47.422,42.889,47.422c11.872-0.34,23.643-2.287,34.992-5.787c4.255-1.236,8.641-2.277,13.02-3.314
			c20.016,17.292,43.35,30.318,68.574,38.279v23.054c-5.399-0.506-11.002-0.782-16.787-0.782c-47.852,0-83.934,18.041-83.934,41.967
			c0,4.636,3.758,8.393,8.393,8.393h151.082c4.636,0,8.393-3.758,8.393-8.393c-0.84-10.877-7.169-20.574-16.787-25.721v-27.314
			c27.864,3.566,56.07,3.566,83.934,0.001v27.313c-9.618,5.147-15.947,14.845-16.787,25.721c0,4.636,3.758,8.393,8.393,8.393
			h151.082c4.636,0,8.393-3.758,8.393-8.393c0-23.926-36.082-41.967-83.934-41.967c-5.785,0-11.388,0.276-16.787,0.782v-23.06
			c25.431-8.017,48.941-21.178,69.071-38.664c4.914,1.143,9.822,2.33,14.605,3.718c11.335,3.494,23.091,5.436,34.947,5.775
			c28.463,0,42.893-15.955,42.893-47.422c0-18.005-21.977-46.973-44.009-71.502L461.639,283.881z M414.561,43.414
			c0.578-0.635,1.975-0.525,3.074-0.082c1.037,0.422,2.07,1.258,2.045,2.004c-0.366,23.571-4.676,46.915-12.753,69.063
			c-8.79-14.627-18.625-28.599-29.43-41.807C391.693,65.463,404.3,55.539,414.561,43.414z M83.848,45.373
			c-0.029-0.783,1.004-1.619,2.041-2.041c1.086-0.439,2.492-0.553,3.037,0.049c10.315,12.191,23.006,22.152,37.299,29.275
			c-10.853,13.263-20.735,27.291-29.569,41.977C88.536,92.427,84.206,69.014,83.848,45.373z M176.262,487.84H80.41
			c9.361-8.484,31.689-16.787,62.279-16.787s52.918,8.303,62.279,16.787H176.262z M193.049,462.26
			c-5.473-1.985-11.084-3.568-16.787-4.738v-20.674c5.483,1.395,11.069,2.651,16.787,3.727V462.26z M423.197,487.84H298.639
			c9.361-8.484,31.689-16.787,62.279-16.787S413.836,479.357,423.197,487.84z M327.344,457.523
			c-5.703,1.169-11.314,2.753-16.787,4.738v-21.689c5.716-1.075,11.311-2.314,16.787-3.717V457.523z M462.754,386.029
			c-10.286-0.342-20.48-2.065-30.307-5.123c-11.558-3.352-23.393-5.799-34.84-8.164l-1.058-0.221
			c-2.152-0.443-4.791-0.811-7.652-1.201c-5.75-0.787-16.455-2.246-18.881-5.217c-0.595-1.001-0.84-2.172-0.697-3.328
			c0.376-3.818,2-7.406,4.619-10.209c10.705-12.082,31.197-13.807,47.852-13.959c4.636-0.022,8.376-3.797,8.354-8.432
			c-0.021-4.636-3.797-8.376-8.432-8.354h-0.078c-20.131,0.185-45.172,2.582-60.275,19.627c-5.115,5.63-8.21,12.802-8.799,20.385
			c-0.403,5.311,1.162,10.584,4.398,14.816c6.664,8.164,19.418,9.906,29.668,11.303c2.075,0.282,3.952,0.549,5.611,0.854
			c-34.673,26.049-83.757,40.281-140.434,40.281c-56.457,0-105.387-14.124-139.995-39.983l0.683-0.14
			c1.836-0.381,4.086-0.68,6.529-1.012c10.25-1.397,23.004-3.139,29.717-11.369c3.211-4.238,4.757-9.506,4.344-14.807
			c-0.599-7.57-3.699-14.726-8.811-20.34c-15.086-17.033-40.127-19.43-60.258-19.615h-0.078c-4.636-0.022-8.411,3.719-8.432,8.354
			s3.719,8.411,8.354,8.432c16.656,0.152,37.148,1.877,47.84,13.951c2.612,2.784,4.238,6.35,4.627,10.148
			c0.149,1.15-0.076,2.317-0.643,3.328c-2.479,3.041-13.18,4.5-18.93,5.287c-2.861,0.389-5.5,0.758-7.656,1.201l-1.025,0.213
			c-11.455,2.369-23.303,4.82-34.828,8.16c-9.842,3.064-20.051,4.792-30.352,5.135c-19.029,0-26.102-8.303-26.102-30.635
			c0-10.048,15.476-33.258,40.164-60.759l0.065-0.07c3.176-3.537,6.462-7.125,9.93-10.786c3.188-3.366,3.045-8.679-0.32-11.869
			c-1.947-1.796-4.637-2.548-7.233-2.024c0.766-9.545,2.111-19.034,4.028-28.415l1.5-6.766c7.83-33.773,20.215-66.326,36.814-96.763
			c0.988-1.023,1.695-2.283,2.054-3.66c11.561-20.948,25.384-40.565,41.222-58.498c1.082-0.747,1.97-1.741,2.592-2.9
			c30.696-33.282,66.777-55.077,104.198-55.077c90.512,0,166.828,126.672,187.123,218.123l0.275,1.238
			c0.393,1.742,0.775,3.443,1.119,5.234c1.837,9.032,3.132,18.165,3.879,27.351c-1.923,0.095-3.753,0.858-5.174,2.157
			c-1.617,1.53-2.56,3.64-2.621,5.865c-0.061,2.225,0.766,4.384,2.297,5.999c30.471,32.168,50.16,60.279,50.16,71.619
			C488.861,377.725,481.787,386.029,462.754,386.029z"/>
		<path d="M251.803,160.496c18.542,0,33.574-15.031,33.574-33.574s-15.031-33.574-33.574-33.574s-33.574,15.031-33.574,33.574
			C218.251,145.456,233.27,160.475,251.803,160.496z M251.803,110.135c9.271,0,16.787,7.516,16.787,16.787
			c0,9.271-7.516,16.787-16.787,16.787c-9.271,0-16.787-7.516-16.787-16.787C235.026,117.655,242.536,110.145,251.803,110.135z"/>
		<path d="M165.668,207.078c5.82-2.107,11.749-3.899,17.762-5.369c6.488-1.611,13.439-2.992,20.652-4.111
			c7.373-1.143,15.102-2.025,22.975-2.615c16.475-1.213,33.017-1.213,49.492,0c7.873,0.59,15.602,1.471,22.975,2.615
			c7.213,1.119,14.164,2.5,20.652,4.111c6.013,1.469,11.942,3.262,17.762,5.369c2.816,1.032,5.968,0.484,8.27-1.438
			c2.302-1.922,3.403-4.927,2.889-7.881c-0.514-2.955-2.565-5.411-5.381-6.443c-6.296-2.279-12.709-4.222-19.212-5.822
			c20.352-35.276,12.444-80.073-18.757-106.248s-76.69-26.175-107.891,0s-39.109,70.971-18.757,106.248
			c-6.502,1.6-12.915,3.543-19.212,5.822c-2.816,1.032-4.867,3.488-5.381,6.443c-0.514,2.955,0.588,5.959,2.889,7.881
			C159.7,207.562,162.852,208.11,165.668,207.078z M251.803,76.562c37.067,0.042,67.105,30.081,67.148,67.148
			c0.057,13.656-4.136,26.991-11.996,38.158c-1.624-0.282-3.206-0.603-4.857-0.859c-7.807-1.209-15.984-2.139-24.295-2.762
			c-17.31-1.279-34.69-1.279-52,0c-8.311,0.623-16.488,1.553-24.295,2.762c-1.651,0.256-3.232,0.577-4.857,0.859
			c-7.86-11.167-12.053-24.502-11.996-38.158C184.698,106.642,214.736,76.604,251.803,76.562z"/>
		<path d="M402.475,221.627c-12.336-4.081-25.843-2.516-36.918,4.279c-33.361,16.68-48.586,24.295-113.754,24.295
			s-80.393-7.615-113.754-24.295c-11.074-6.797-24.583-8.362-36.918-4.279c-7.765,3.281-13.832,9.622-16.766,17.525
			c-1.467,4.398,0.909,9.152,5.307,10.619c4.398,1.467,9.152-0.909,10.619-5.307c1.415-3.267,4.008-5.881,7.262-7.324
			c6.446-1.775,13.328-0.998,19.216,2.17l4.948,29.679c0.98,6.228,5.384,11.373,11.385,13.304c1.683,0.546,3.44,0.825,5.209,0.828
			c4.433-0.001,8.684-1.768,11.812-4.91l17.91-17.911c24.223,5.246,48.999,7.493,73.77,6.689c4.471,0,8.712-0.043,12.778-0.119
			l19.509,23.214c3.501,4.361,8.801,6.886,14.393,6.857c1.006,0,2.011-0.079,3.004-0.238c6.15-0.857,11.338-5.011,13.52-10.824
			l7.372-20.378l12.71,12.71c3.128,3.142,7.378,4.909,11.811,4.91c1.769-0.003,3.526-0.282,5.209-0.828
			c5.986-1.92,10.384-7.043,11.377-13.25l4.246-25.46c1.745-0.867,3.508-1.747,5.332-2.659c6.757-4.337,14.991-5.731,22.799-3.861
			c3.387,1.414,6.077,4.11,7.484,7.5c1.515,4.36,6.265,6.68,10.635,5.192c4.37-1.487,6.719-6.223,5.259-10.602
			C416.307,231.249,410.241,224.908,402.475,221.627z M148.283,266.279l-3.024-18.141c4.951,2.342,9.792,4.496,14.764,6.419
			L148.283,266.279z M299.356,279.943c-0.336,0.172-0.715,0.241-1.09,0.197c-0.47-0.045-0.899-0.29-1.176-0.672l-11.298-13.446
			c7.074-0.46,13.407-1.096,19.25-1.878L299.356,279.943z M346.959,266.34l-9.546-9.546c4.075-1.387,7.996-2.904,11.88-4.559
			L346.959,266.34z"/>
	</g>
</g>
<g>
</g>
<g>
</g>
<g>
</g>
<g>
</g>
<g>
</g>
<g>
</g>
<g>
</g>
<g>
</g>
<g>
</g>
<g>
</g>
<g>
</g>
<g>
</g>
<g>
</g>
<g>
</g>
<g>
</g>
</svg>
